HIERARCHY
ROOT Hips
{
	OFFSET 0.00000 0.00000 0.00000
	CHANNELS 6 Xposition Yposition Zposition Zrotation Yrotation Xrotation 
	JOINT LHipJoint
	{
		OFFSET 0 0 0
		CHANNELS 3 Zrotation Yrotation Xrotation
		JOINT LeftUpLeg
		{
			OFFSET 1.55766 -1.60504 1.11378
			CHANNELS 3 Zrotation Yrotation Xrotation
			JOINT LeftLeg
			{
				OFFSET 2.29047 -6.29302 0.00000
				CHANNELS 3 Zrotation Yrotation Xrotation
				JOINT LeftFoot
				{
					OFFSET 2.52265 -6.93093 0.00000
					CHANNELS 3 Zrotation Yrotation Xrotation
					JOINT LeftToeBase
					{
						OFFSET 0.17633 -0.48446 2.02656
						CHANNELS 3 Zrotation Yrotation Xrotation
						End Site
						{
							OFFSET 0.00000 -0.00000 1.04989
						}
					}
				}
			}
		}
	}
	JOINT RHipJoint
	{
		OFFSET 0 0 0
		CHANNELS 3 Zrotation Yrotation Xrotation
		JOINT RightUpLeg
		{
			OFFSET -1.48599 -1.60504 1.11378
			CHANNELS 3 Zrotation Yrotation Xrotation
			JOINT RightLeg
			{
				OFFSET -2.27280 -6.24448 0.00000
				CHANNELS 3 Zrotation Yrotation Xrotation
				JOINT RightFoot
				{
					OFFSET -2.50834 -6.89161 0.00000
					CHANNELS 3 Zrotation Yrotation Xrotation
					JOINT RightToeBase
					{
						OFFSET -0.26967 -0.74090 2.08741
						CHANNELS 3 Zrotation Yrotation Xrotation
						End Site
						{
							OFFSET -0.00000 -0.00000 1.10614
						}
					}
				}
			}
		}
	}
	JOINT LowerBack
	{
		OFFSET 0 0 0
		CHANNELS 3 Zrotation Yrotation Xrotation
		JOINT Spine
		{
			OFFSET 0.06481 2.02437 -0.08472
			CHANNELS 3 Zrotation Yrotation Xrotation
			JOINT Spine1
			{
				OFFSET 0.00015 1.96711 0.18069
				CHANNELS 3 Zrotation Yrotation Xrotation
				JOINT Neck
				{
					OFFSET 0 0 0
					CHANNELS 3 Zrotation Yrotation Xrotation
					JOINT Neck1
					{
						OFFSET -0.29961 1.68293 -0.13041
						CHANNELS 3 Zrotation Yrotation Xrotation
						JOINT Head
						{
							OFFSET 0.59697 1.61501 -0.14669
							CHANNELS 3 Zrotation Yrotation Xrotation
							End Site
							{
								OFFSET 0.22973 1.74906 -0.10148
							}
						}
					}
				}
				JOINT LeftShoulder
				{
					OFFSET 0 0 0
					CHANNELS 3 Zrotation Yrotation Xrotation
					JOINT LeftArm
					{
						OFFSET 3.37968 1.02893 0.31147
						CHANNELS 3 Zrotation Yrotation Xrotation
						JOINT LeftForeArm
						{
							OFFSET 5.19807 -0.00000 -0.00000
							CHANNELS 3 Zrotation Yrotation Xrotation
							JOINT LeftHand
							{
								OFFSET 3.09370 -0.00000 -0.00000
								CHANNELS 3 Zrotation Yrotation Xrotation
								JOINT LeftFingerBase
								{
									OFFSET 0 0 0
									CHANNELS 3 Zrotation Yrotation Xrotation
									JOINT LeftHandIndex1
									{
										OFFSET 0.67263 -0.00000 -0.00000
										CHANNELS 3 Zrotation Yrotation Xrotation
										End Site
										{
											OFFSET 0.54229 -0.00000 -0.00000
										}
									}
								}
								JOINT LThumb
								{
									OFFSET 0 0 0
									CHANNELS 3 Zrotation Yrotation Xrotation
									End Site
									{
										OFFSET 0.55057 -0.00000 0.55057
									}
								}
							}
						}
					}
				}
				JOINT RightShoulder
				{
					OFFSET 0 0 0
					CHANNELS 3 Zrotation Yrotation Xrotation
					JOINT RightArm
					{
						OFFSET -3.38254 0.96355 -0.16120
						CHANNELS 3 Zrotation Yrotation Xrotation
						JOINT RightForeArm
						{
							OFFSET -5.45222 -0.00000 -0.00000
							CHANNELS 3 Zrotation Yrotation Xrotation
							JOINT RightHand
							{
								OFFSET -3.01284 -0.00000 -0.00000
								CHANNELS 3 Zrotation Yrotation Xrotation
								JOINT RightFingerBase
								{
									OFFSET 0 0 0
									CHANNELS 3 Zrotation Yrotation Xrotation
									JOINT RightHandIndex1
									{
										OFFSET -0.62230 -0.00000 -0.00000
										CHANNELS 3 Zrotation Yrotation Xrotation
										End Site
										{
											OFFSET -0.50171 -0.00000 -0.00000
										}
									}
								}
								JOINT RThumb
								{
									OFFSET 0 0 0
									CHANNELS 3 Zrotation Yrotation Xrotation
									End Site
									{
										OFFSET -0.50937 -0.00000 0.50937
									}
								}
							}
						}
					}
				}
			}
		}
	}
}
MOTION
Frames: 13
Frame Time: .0083333
6.3786 15.8145 14.0678 0 0 0 0 0 0 -21 0 0 0 0 0 0 0 0 0 0 0 0 0 0 21 0 0 0 0 0 0 0 0 0 0 0 0 0 0 0 0 0 0 0 0 0 0 -16 0 0 21 0 0 11 0 0 0 -8 0 0 0 0 0 0 0 0 0 0 0 0 0 0 0 0 0 0 0 0 8 0 0 0 0 0 0 0 0 0 0 0 0 0 0 0 0 0
6.3786 15.8145 14.0678 -8.3784 -16.7010 17.2245 0.0000 0.0000 0.0000 -14.1190 2.9031 -34.3151 5.1694 13.5720 41.5494 1.3757 -14.7568 -21.9548 0.4134 -4.1272 -11.4347 0.0000 0.0000 0.0000 29.4857 -1.4548 -32.6727 -3.8248 -11.9236 35.4621 1.9218 31.4744 -10.7853 -0.0767 -1.7867 4.9166 6.4270 1.8845 -13.2316 0.0459 1.7390 -8.6355 -3.3589 0.5856 -1.5269 -30.3360 -13.2445 37.8462 44.5449 -27.8058 -14.9836 23.6948 -18.4931 1.8899 0.0000 -0.0000 0.0000 -87.1071 15.2562 34.5990 16.8932 -26.7168 -4.0392 -0.0000 0.0000 -33.2740 17.4363 -8.2500 -2.5804 -7.1250 0.0000 -0.0000 -6.8169 21.3629 3.8924 0.0000 -0.0000 0.0000 91.6448 -7.2033 35.0607 -12.0389 19.8630 -2.1155 0.0000 0.0000 26.8240 -7.4474 -1.1267 0.1473 7.1250 -0.0000 -0.0000 15.1103 -30.8962 5.3742
6.3787 15.8150 14.0690 -8.3672 -16.6827 17.2311 0.0000 0.0000 0.0000 -14.1296 2.8945 -34.3234 5.1691 13.5717 41.5482 1.3703 -14.8047 -21.9305 0.4054 -4.0876 -11.3234 0.0000 0.0000 0.0000 29.4801 -1.4935 -32.6942 -3.8252 -11.9241 35.4641 1.9288 31.5050 -10.7745 -0.0768 -1.7880 4.9202 6.4160 1.8693 -13.2311 0.0539 1.7202 -8.6368 -3.3466 0.5766 -1.5308 -30.3498 -13.2423 37.8175 44.5473 -27.8033 -14.9841 23.6934 -18.4893 1.8965 -0.0000 0.0000 0.0000 -87.1260 15.3091 34.5871 16.9275 -26.7621 -4.0546 -0.0000 0.0000 -33.2530 17.4729 -8.3047 -2.6032 -7.1250 0.0000 -0.0000 -6.7897 21.3043 3.8857 -0.0000 0.0000 0.0000 91.6306 -7.1661 35.0902 -12.0262 19.8439 -2.1112 0.0000 0.0000 26.8374 -7.4742 -1.1436 0.1500 7.1250 -0.0000 -0.0000 15.0922 -30.9133 5.3609
6.3782 15.8145 14.0696 -8.3688 -16.6841 17.2187 0.0000 0.0000 0.0000 -14.1314 2.9213 -34.3191 5.1693 13.5720 41.5491 1.3728 -14.8116 -21.9489 0.4060 -4.0904 -11.3311 0.0000 0.0000 0.0000 29.4792 -1.4754 -32.6770 -3.8263 -11.9255 35.4691 1.9205 31.4828 -10.8052 -0.0749 -1.7659 4.8591 6.4103 1.8660 -13.2189 0.0595 1.7171 -8.6299 -3.3381 0.5757 -1.5304 -30.3478 -13.2398 37.8016 44.5531 -27.7951 -14.9833 23.6975 -18.4847 1.8966 0.0000 0.0000 0.0000 -87.1232 15.2901 34.6197 16.9147 -26.7451 -4.0489 -0.0000 0.0000 -33.2834 17.5060 -8.3413 -2.6199 -7.1250 0.0000 -0.0000 -6.7652 21.2644 3.8776 0.0000 0.0000 0.0000 91.6177 -7.1602 35.1334 -12.0402 19.8650 -2.1159 0.0000 0.0000 26.7832 -7.4484 -1.1630 0.1520 7.1250 -0.0000 -0.0000 15.1153 -30.9315 5.3628
6.3775 15.8145 14.0693 -8.3659 -16.6541 17.2297 0.0000 0.0000 0.0000 -14.1286 2.9340 -34.3429 5.1691 13.5718 41.5484 1.3668 -14.8737 -21.9244 0.4032 -4.0766 -11.2923 0.0000 0.0000 0.0000 29.4820 -1.4694 -32.6879 -3.8273 -11.9270 35.4743 1.9128 31.4536 -10.8232 -0.0747 -1.7633 4.8520 6.3965 1.8524 -13.2044 0.0688 1.7023 -8.6446 -3.3228 0.5679 -1.5558 -30.3664 -13.2322 37.7811 44.5449 -27.7947 -14.9590 23.6907 -18.4812 1.9078 -0.0000 0.0000 0.0000 -87.1340 15.2869 34.6127 16.9111 -26.7404 -4.0473 -0.0000 0.0000 -33.2641 17.4653 -8.2762 -2.5932 -7.1250 0.0000 -0.0000 -6.7955 21.3342 3.8845 -0.0000 0.0000 0.0000 91.6106 -7.1617 35.1318 -12.0403 19.8650 -2.1160 0.0000 0.0000 26.7852 -7.4603 -1.1704 0.1533 7.1250 -0.0000 -0.0000 15.1073 -30.9391 5.3570
6.3769 15.8146 14.0691 -8.3603 -16.6252 17.2391 0.0000 0.0000 0.0000 -14.1312 2.9479 -34.3682 5.1689 13.5716 41.5476 1.3622 -14.9309 -21.9082 0.4012 -4.0664 -11.2637 0.0000 0.0000 0.0000 29.4823 -1.4651 -32.7026 -3.8287 -11.9289 35.4811 1.9052 31.4277 -10.8438 -0.0739 -1.7537 4.8255 6.3836 1.8388 -13.1950 0.0761 1.6865 -8.6515 -3.3101 0.5601 -1.5701 -30.3776 -13.2282 37.7497 44.5381 -27.7915 -14.9378 23.6820 -18.4756 1.9175 0.0000 0.0000 0.0000 -87.1404 15.2852 34.6186 16.9120 -26.7417 -4.0477 -0.0000 0.0000 -33.2597 17.4617 -8.2490 -2.5841 -7.1250 0.0000 -0.0000 -6.7986 21.3627 3.8818 0.0000 0.0000 0.0000 91.6022 -7.1489 35.1436 -12.0401 19.8648 -2.1159 0.0000 0.0000 26.7777 -7.4687 -1.1712 0.1535 7.1250 -0.0000 -0.0000 15.1009 -30.9400 5.3542
6.3764 15.8147 14.0685 -8.3548 -16.5933 17.2503 0.0000 0.0000 0.0000 -14.1330 2.9622 -34.3965 5.1683 13.5709 41.5450 1.3570 -14.9932 -21.8892 0.3995 -4.0581 -11.2402 0.0000 0.0000 0.0000 29.4821 -1.4528 -32.7182 -3.8304 -11.9313 35.4892 1.8946 31.3902 -10.8717 -0.0729 -1.7414 4.7916 6.3712 1.8260 -13.1833 0.0821 1.6723 -8.6615 -3.2990 0.5528 -1.5889 -30.3881 -13.2225 37.7183 44.5241 -27.7867 -14.9084 23.6691 -18.4680 1.9266 -0.0000 0.0000 0.0000 -87.1427 15.2851 34.6313 16.9111 -26.7404 -4.0473 -0.0000 0.0000 -33.2541 17.4537 -8.2129 -2.5716 -7.1250 0.0000 -0.0000 -6.8050 21.4006 3.8796 -0.0000 0.0000 0.0000 91.5977 -7.1395 35.1416 -12.0378 19.8612 -2.1151 0.0000 0.0000 26.7792 -7.4817 -1.1590 0.1522 7.1250 -0.0000 -0.0000 15.0889 -30.9284 5.3540
6.3758 15.8147 14.0678 -8.3467 -16.5608 17.2606 0.0000 0.0000 0.0000 -14.1370 2.9742 -34.4235 5.1675 13.5700 41.5415 1.3515 -15.0584 -21.8689 0.3981 -4.0508 -11.2197 0.0000 0.0000 0.0000 29.4783 -1.4368 -32.7332 -3.8325 -11.9341 35.4992 1.8824 31.3468 -10.9037 -0.0718 -1.7291 4.7576 6.3556 1.8124 -13.1661 0.0887 1.6577 -8.6735 -3.2856 0.5453 -1.6126 -30.4039 -13.2138 37.6790 44.5012 -27.7805 -14.8661 23.6496 -18.4575 1.9385 -0.0000 -0.0000 0.0000 -87.1476 15.2908 34.6426 16.9110 -26.7402 -4.0472 -0.0000 0.0000 -33.2430 17.4419 -8.1741 -2.5578 -7.1250 0.0000 -0.0000 -6.8141 21.4415 3.8786 -0.0000 -0.0000 0.0000 91.5919 -7.1312 35.1352 -12.0334 19.8547 -2.1136 0.0000 0.0000 26.7866 -7.4985 -1.1407 0.1501 7.1250 -0.0000 -0.0000 15.0729 -30.9112 5.3544
6.3753 15.8145 14.0670 -8.3390 -16.5326 17.2670 0.0000 0.0000 0.0000 -14.1402 2.9855 -34.4449 5.1667 13.5691 41.5380 1.3464 -15.1206 -21.8509 0.3970 -4.0455 -11.2047 0.0000 0.0000 0.0000 29.4719 -1.4113 -32.7410 -3.8349 -11.9374 35.5107 1.8673 31.2944 -10.9443 -0.0704 -1.7122 4.7110 6.3408 1.8003 -13.1422 0.0949 1.6455 -8.6825 -3.2728 0.5390 -1.6366 -30.4195 -13.2056 37.6239 44.4708 -27.7728 -14.8114 23.6216 -18.4437 1.9535 0.0000 -0.0000 0.0000 -87.1510 15.2953 34.6560 16.9102 -26.7393 -4.0469 -0.0000 0.0000 -33.2293 17.4316 -8.1463 -2.5475 -7.1250 0.0000 -0.0000 -6.8220 21.4709 3.8786 0.0000 -0.0000 0.0000 91.5863 -7.1191 35.1296 -12.0297 19.8492 -2.1124 0.0000 0.0000 26.7924 -7.5133 -1.1222 0.1480 7.1250 -0.0000 -0.0000 15.0586 -30.8936 5.3556
6.3749 15.8142 14.0659 -8.3310 -16.5111 17.2676 0.0000 0.0000 0.0000 -14.1434 2.9950 -34.4578 5.1659 13.5682 41.5346 1.3417 -15.1768 -21.8344 0.3952 -4.0366 -11.1796 0.0000 0.0000 0.0000 29.4608 -1.3735 -32.7386 -3.8376 -11.9411 35.5241 1.8488 31.2306 -10.9955 -0.0686 -1.6898 4.6491 6.3242 1.7892 -13.1064 0.1015 1.6357 -8.6907 -3.2585 0.5339 -1.6658 -30.4384 -13.1945 37.5542 44.4321 -27.7617 -14.7417 23.5867 -18.4255 1.9718 -0.0000 -0.0000 0.0000 -87.1560 15.3002 34.6656 16.9083 -26.7368 -4.0460 -0.0000 0.0000 -33.2117 17.4180 -8.1269 -2.5394 -7.1250 0.0000 -0.0000 -6.8322 21.4917 3.8812 -0.0000 -0.0000 0.0000 91.5807 -7.1073 35.1240 -12.0268 19.8448 -2.1114 0.0000 0.0000 26.7985 -7.5212 -1.1118 0.1468 7.1250 -0.0000 -0.0000 15.0508 -30.8835 5.3564
6.3746 15.8136 14.0649 -8.3241 -16.4953 17.2602 0.0000 0.0000 0.0000 -14.1455 3.0039 -34.4599 5.1654 13.5677 41.5324 1.3380 -15.2271 -21.8227 0.3926 -4.0232 -11.1420 0.0000 0.0000 0.0000 29.4479 -1.3324 -32.7252 -3.8405 -11.9451 35.5381 1.8292 31.1639 -11.0515 -0.0665 -1.6636 4.5767 6.3104 1.7799 -13.0615 0.1071 1.6286 -8.6940 -3.2466 0.5302 -1.6943 -30.4589 -13.1818 37.4650 44.3881 -27.7473 -14.6565 23.5456 -18.4032 1.9948 0.0000 0.0000 0.0000 -87.1606 15.3016 34.6713 16.9054 -26.7330 -4.0447 -0.0000 0.0000 -33.1897 17.4054 -8.1148 -2.5337 -7.1250 0.0000 -0.0000 -6.8415 21.5049 3.8845 0.0000 0.0000 0.0000 91.5765 -7.0915 35.1188 -12.0248 19.8418 -2.1107 0.0000 0.0000 26.8031 -7.5257 -1.1060 0.1461 7.1250 -0.0000 -0.0000 15.0464 -30.8780 5.3568
6.3743 15.8131 14.0635 -8.3162 -16.4782 17.2521 0.0000 0.0000 0.0000 -14.1473 3.0089 -34.4628 5.1652 13.5674 41.5314 1.3338 -15.2781 -21.8086 0.3882 -4.0012 -11.0800 0.0000 0.0000 0.0000 29.4321 -1.2791 -32.7081 -3.8435 -11.9492 35.5525 1.8052 31.0811 -11.1189 -0.0637 -1.6278 4.4782 6.2953 1.7698 -13.0086 0.1127 1.6211 -8.6977 -3.2342 0.5262 -1.7276 -30.4841 -13.1636 37.3597 44.3390 -27.7268 -14.5552 23.5013 -18.3757 2.0217 -0.0000 -0.0000 0.0000 -87.1660 15.3013 34.6734 16.9019 -26.7283 -4.0431 -0.0000 0.0000 -33.1625 17.3998 -8.1088 -2.5310 -7.1250 0.0000 -0.0000 -6.8456 21.5114 3.8858 -0.0000 -0.0000 0.0000 91.5719 -7.0755 35.1173 -12.0248 19.8418 -2.1107 0.0000 0.0000 26.8036 -7.5233 -1.1152 0.1473 7.1250 -0.0000 -0.0000 15.0497 -30.8870 5.3547
6.3741 15.8126 14.0619 -8.3080 -16.4617 17.2399 0.0000 0.0000 0.0000 -14.1475 3.0058 -34.4601 5.1653 13.5675 41.5319 1.3299 -15.3237 -21.7944 0.3821 -3.9696 -10.9910 0.0000 0.0000 0.0000 29.4125 -1.2095 -32.6801 -3.8464 -11.9531 35.5663 1.7755 30.9769 -11.2011 -0.0600 -1.5805 4.3478 6.2808 1.7598 -12.9456 0.1174 1.6146 -8.7019 -3.2232 0.5225 -1.7666 -30.5135 -13.1386 37.2401 44.2830 -27.6992 -14.4333 23.4534 -18.3424 2.0523 -0.0000 -0.0000 0.0000 -87.1701 15.3020 34.6762 16.8979 -26.7229 -4.0413 -0.0000 0.0000 -33.1366 17.4032 -8.1032 -2.5298 -7.1250 0.0000 -0.0000 -6.8432 21.5171 3.8836 -0.0000 -0.0000 0.0000 91.5684 -7.0635 35.1167 -12.0254 19.8428 -2.1109 0.0000 0.0000 26.8048 -7.5212 -1.1326 0.1495 7.1250 -0.0000 -0.0000 15.0541 -30.9039 5.3500
